<!-- svg minify -->
<svg xmlns="http://www.w3.org/2000/svg" width="21.559" height="22.776"><path d="m1351.8 1585.9-4.555-1.7v-1.547a7.6 7.6 0 0 0 2.536-5.795c0-.19-.012-.376-.024-.563v-.1a.15.15 0 0 0 0-.015c-.3-3.64-2.929-6.5-6.127-6.5-3.037 0-5.561 2.581-6.061 5.96a1.021 1.021 0 0 0-.026.2 8.308 8.308 0 0 0-.07 1.022 7.526 7.526 0 0 0 2.828 6.03v1.309l-4.577 1.7a4.136 4.136 0 0 0-2.727 3.9v1.623a1.039 1.039 0 0 0 1.04 1.04h19.479a1.04 1.04 0 0 0 1.04-1.04v-1.623a4.148 4.148 0 0 0-2.756-3.901zm-8.176-14.143c1.84 0 3.4 1.534 3.9 3.632-.828.047-1.5-.278-2.217-1.535a1.055 1.055 0 0 0-.923-.524 1.041 1.041 0 0 0-.9.559 3.748 3.748 0 0 1-2.931 1.416 3.333 3.333 0 0 1-.787-.088 4.275 4.275 0 0 1 3.855-3.463zm-4.059 5.534a5.528 5.528 0 0 0 .989.094 6.364 6.364 0 0 0 3.764-1.338 3.884 3.884 0 0 0 3.052 1.427c.1 0 .2-.01.3-.016a5.288 5.288 0 0 1-2.029 3.825c-.027.017-.051.038-.076.058a3.43 3.43 0 0 1-1.941.616c-2.133-.003-3.885-2.057-4.062-4.669zm12.9 13.083h-17.4v-.583a2.056 2.056 0 0 1 1.358-1.941l5.268-1.955a1.04 1.04 0 0 0 .678-.975v-1.032a5.219 5.219 0 0 0 2.79-.088v1.12a1.039 1.039 0 0 0 .676.974l5.246 1.96a2.1 2.1 0 0 1 1.383 1.937z" transform="translate(-1332.988 -1569.674)" style="fill:#fbb905"/></svg>